<svg xmlns="http://www.w3.org/2000/svg" width="28" height="32" fill="none" viewBox="0 0 28 32"><g clip-path="url(#clip0_168_638)"><path fill="#fff" d="M14.0063 9.03721C10.0313 9.03721 6.82505 12.1433 6.82505 15.994C6.82505 19.8448 10.0313 22.9509 14.0063 22.9509C17.9813 22.9509 21.1875 19.8448 21.1875 15.994C21.1875 12.1433 17.9813 9.03721 14.0063 9.03721ZM14.0063 20.5169C11.4375 20.5169 9.33755 18.4886 9.33755 15.994C9.33755 13.4995 11.4313 11.4712 14.0063 11.4712C16.5813 11.4712 18.675 13.4995 18.675 15.994C18.675 18.4886 16.575 20.5169 14.0063 20.5169ZM23.1563 8.75264C23.1563 9.65479 22.4063 10.3753 21.4813 10.3753C20.5501 10.3753 19.8063 9.64873 19.8063 8.75264C19.8063 7.85654 20.5563 7.12998 21.4813 7.12998C22.4063 7.12998 23.1563 7.85654 23.1563 8.75264ZM27.9125 10.3995C27.8063 8.22588 27.2938 6.30049 25.65 4.71416C24.0125 3.12783 22.025 2.63135 19.7813 2.52236C17.4688 2.39521 10.5375 2.39521 8.22505 2.52236C5.98755 2.62529 4.00005 3.12178 2.3563 4.70811C0.712549 6.29443 0.206299 8.21982 0.0937988 10.3935C-0.0374512 12.6337 -0.0374512 19.3483 0.0937988 21.5886C0.200049 23.7622 0.712549 25.6876 2.3563 27.2739C4.00005 28.8603 5.9813 29.3567 8.22505 29.4657C10.5375 29.5929 17.4688 29.5929 19.7813 29.4657C22.025 29.3628 24.0125 28.8663 25.65 27.2739C27.2875 25.6876 27.8001 23.7622 27.9125 21.5886C28.0438 19.3483 28.0438 12.6397 27.9125 10.3995ZM24.925 23.9923C24.4375 25.179 23.4938 26.0933 22.2626 26.5716C20.4188 27.28 16.0438 27.1165 14.0063 27.1165C11.9688 27.1165 7.58755 27.2739 5.75005 26.5716C4.52505 26.0993 3.5813 25.1851 3.08755 23.9923C2.3563 22.2062 2.52505 17.9679 2.52505 15.994C2.52505 14.0202 2.36255 9.77588 3.08755 7.9958C3.57505 6.80908 4.5188 5.89482 5.75005 5.4165C7.5938 4.70811 11.9688 4.87158 14.0063 4.87158C16.0438 4.87158 20.4251 4.71416 22.2626 5.4165C23.4876 5.88877 24.4313 6.80303 24.925 7.9958C25.6563 9.78193 25.4875 14.0202 25.4875 15.994C25.4875 17.9679 25.6563 22.2122 24.925 23.9923Z"/></g><defs><clipPath id="clip0_168_638"><rect width="28" height="31" fill="#fff" transform="translate(0 0.5)"/></clipPath></defs></svg>