<svg xmlns="http://www.w3.org/2000/svg" width="28" height="32" fill="none" viewBox="0 0 28 32"><path fill="#fff" d="M26 2.4375H1.99375C0.89375 2.4375 0 3.31543 0 4.39316V27.6068C0 28.6846 0.89375 29.5625 1.99375 29.5625H26C27.1 29.5625 28 28.6846 28 27.6068V4.39316C28 3.31543 27.1 2.4375 26 2.4375ZM8.4625 25.6875H4.3125V12.7426H8.46875V25.6875H8.4625ZM6.3875 10.9746C5.05625 10.9746 3.98125 9.92715 3.98125 8.64355C3.98125 7.35996 5.05625 6.3125 6.3875 6.3125C7.7125 6.3125 8.79375 7.35996 8.79375 8.64355C8.79375 9.9332 7.71875 10.9746 6.3875 10.9746ZM24.0187 25.6875H19.8687V19.3906C19.8687 17.8891 19.8375 15.9576 17.7125 15.9576C15.55 15.9576 15.2188 17.5924 15.2188 19.2816V25.6875H11.0688V12.7426H15.05V14.5105H15.1062C15.6625 13.4934 17.0188 12.4217 19.0375 12.4217C23.2375 12.4217 24.0187 15.1039 24.0187 18.5914V25.6875Z"/></svg>