<svg width="140" height="56" viewBox="0 0 140 56" fill="none" xmlns="http://www.w3.org/2000/svg">
<path d="M17.6561 0H18.8153L20.0637 0.538462L20.8662 1.34615L21.5796 1.25641L22.5605 0.98718L24.0764 0.897436L25.3248 1.07692L25.949 1.25641H26.3949L27.0191 0.717949L27.7325 0.358974H29.0701L29.8726 0.807692L30.4076 1.4359L30.6752 2.33333V3.23077L30.3185 4.21795V5.02564L30.6752 6.28205V7.80769L30.4968 8.61539L30.586 9.24359L31.0318 10.3205L31.121 11.5769L30.9427 12.4744L30.4968 13.1923L29.8726 13.8205L29.6051 14.9872L29.2484 15.6154L28.9809 15.9744L30.1401 17.7692L30.6752 18.8462L31.121 20.0128L31.5669 21.8077L31.6561 22.6154V24.859L31.3885 26.5641L30.9427 28.4487L30.3185 30.1538L29.4268 31.7692L28.6242 32.9359H29.4268L33.172 33.4744L34.0637 33.7436L34.9554 34.2821L35.4904 34.9103L35.758 35.8077V37.1538L35.3121 37.6923L34.5096 38.0513H34.1529L34.7771 38.7692L35.5796 39.7564L36.2038 41.0128L36.5605 42.1795L36.6497 42.7179V44.7821L36.3822 45.9487L35.758 47.3846L34.9554 48.4615L34.1529 49.2692L33.0828 49.9872L31.6561 50.5256L30.4968 50.7051H29.5159L28 50.4359L26.9299 49.9872L26.8408 50.6154H25.7707L25.5924 50.1667L25.5032 49.1795L25.0573 48.2821L24.344 47.8333L24.0764 47.7436L21.3121 47.5641L21.0446 47.0256L20.4204 44.3333L19.7962 42.2692L18.9936 39.9359L18.1019 37.8718L17.2102 36.1667L16.051 34.4615L14.8025 32.8462L13.8217 31.2308V31.0513H13.6433V33.9231L13.8217 35.2692L14.2675 36.9744L14.9809 38.7692L17.2102 43.2564L18.0127 45.0513L18.8153 46.9359L19.3503 47.8333L20.0637 48.3718L21.1338 48.8205L21.5796 49.359L21.6688 49.6282V50.5256L21.1338 50.7051L20.0637 50.7949H15.4268L14.1783 50.6154L14.0892 50.5256L14 49.4487L13.7325 48.9103L13.1975 48.4615L12.7516 48.2821L11.949 48.1923H8.38217L10.7898 48.4615L11.8599 48.8205L12.3057 49.1795L12.5732 49.8974V50.4359L12.1274 50.7051L10.7898 50.8846H5.97452L4.54777 50.7051V50.8846L5.0828 51.0641L6.33121 51.6923L7.93631 52.2308L9.63057 52.6795L11.8599 53.0385L14.8025 53.2179H21.2229L24.1656 53.0385L27.465 52.5897L29.9618 52.0513L32.1911 51.4231L34.0637 50.7051L35.4904 49.9872L36.5605 49.2692L37.5414 48.4615L38.6115 47.3846L39.5032 46.1282L40.2166 44.6923L40.5732 43.1667L40.6624 42.1795V41.1923L40.4841 39.4872L40.1274 37.9615L39.5924 36.7051L38.9682 35.8974L38.1656 35.1795L37.0064 34.5513L36.4713 33.9231L36.3822 33.6538V32.7564L36.7389 32.1282L37.2739 31.7692L37.5414 31.6795H38.6115L39.6815 32.2179L40.5732 33.0256L41.2866 33.7436L42.1783 35.1795L42.7134 36.3462L43.1592 37.6923L43.5159 39.2179L43.6943 40.5641V42.8974L43.4268 44.1538L42.8917 45.859L41.9108 47.7436L41.1975 48.7308L40.3949 49.7179L39.414 50.7949L38.7006 51.4231L37.3631 52.4103L35.8471 53.3077L34.4204 53.9359L32.0127 54.7436L30.1401 55.1923L28.2675 55.5513L25.6815 55.9103L24.7006 56H12.0382L9.09554 55.5513L6.6879 54.9231L4.90446 54.2949L3.21019 53.4872L2.14013 52.6795L1.33758 51.9615L0.713376 51.0641L0.267516 50.1667L0 49.359V47.7436L0.44586 46.3974L0.713376 45.7692V45.141L0.356688 43.7051L0.267516 42.9872V41.8205L0.44586 40.4744L1.07006 38.7692L1.69427 37.7821L2.58599 36.9744L3.65605 36.5256L3.92357 36.4359H5.0828L6.06369 36.7949L6.86624 37.5128L7.49045 38.5897L7.84713 40.0256V40.9231L7.49045 42.6282L7.13376 43.4359V43.6154L7.93631 42.9872L8.64968 42.2692L9.27389 41.2821L9.71975 40.3846L9.98726 39.3974V37.5128L9.5414 36.1667L8.9172 35.359L8.20382 34.7308L7.22293 34.2821L6.50955 34.1026H5.52866L4.4586 34.3718L4.01274 34.5513H3.74522L3.83439 33.5641L4.36943 31.7692L5.0828 29.9744L5.97452 28.0897L7.04459 26.3846L7.93631 25.2179L9.00637 23.9615L10.1656 22.7949L10.6115 22.4359L10.7006 22.2564V19.8333L10.9682 17.9487L11.5032 16.1538L12.2166 14.6282L12.9299 13.4615L13.1083 13.0128L13.3758 10.3205L13.7325 8.79487L14.2675 7.35897L15.0701 5.83333L15.6051 5.11538L15.6943 4.9359L15.6051 4.12821L15.3376 3.58974V2.24359L15.6943 1.34615L16.3185 0.628205L17.3885 0.0897436L17.6561 0Z" fill="#E2D300"/>
<path d="M112.089 7.53846H114.051L115.389 7.80769L116.726 8.34615L117.707 8.97436L118.777 9.96154L119.312 10.5897L120.026 11.7564L120.471 12.8333L120.828 14.1795L120.917 14.8974V17.4103L120.561 19.2051L120.026 20.5513L119.401 21.5385L118.599 22.4359L118.153 22.8846L117.083 23.6923L115.745 24.3205L114.229 24.6795L112.981 24.7692L111.287 24.5897L109.682 24.0513L108.522 23.3333L107.363 22.3462L106.471 21.1795L105.758 19.8333L105.401 18.5769L105.223 17.5897L105.134 15.7949L105.312 14L105.758 12.3846L106.561 10.859L107.541 9.69231L108.611 8.79487L110.127 7.98718L111.465 7.6282L112.089 7.53846Z" fill="white"/>
<path d="M57.3376 7.71795H61.2612L61.9746 8.88462L64.4714 13.1923L65.5415 15.0769L65.8982 15.7949L66.1657 15.4359L67.5033 13.1026L68.6625 11.1282L69.9109 8.97436L70.6243 7.80769L70.7134 7.71795H73.7453L73.8345 7.80769V24.4103H70.6243L70.5351 13.5513L69.8217 14.9872L68.6625 16.8718L67.1466 19.3846L66.7007 20.0128H65.1848L64.1147 18.3077L62.5988 15.7949L61.7962 14.4487L61.4396 13.5513L61.3504 24.4103H57.3376L57.8727 23.3333L58.051 22.6154V9.51282L57.6943 8.34615L57.3376 7.71795Z" fill="white"/>
<path d="M124.127 7.71795H129.656L131.35 7.89744L132.42 8.16667L133.669 8.79487L134.471 9.60256L135.006 10.6795L135.185 11.3077L135.274 12.8333L135.096 13.9103L134.65 14.9872L134.115 15.7949L133.223 16.6026L132.51 16.9615H132.242V17.141L132.599 17.3205L133.223 18.3077L134.828 21.4487L135.72 23.1538L136.344 24.4103H132.42L131.707 23.0641L130.548 20.5513L129.389 18.1282L129.032 17.7692L128.14 17.5897V24.4103H124.127L124.573 23.5128L124.841 22.4359V9.60256L124.573 8.61538L124.306 8.07692V7.89744H124.127V7.71795Z" fill="white"/>
<path d="M83.1974 7.71795H86.4076L86.7643 8.52564L88.4586 13.5513L90.3312 19.1154L91.6688 22.9744L92.293 24.141L92.4713 24.4103H88.8153L87.7452 21.2692V21.0897L81.949 21.1795L80.9681 24.3205L80.879 24.4103H77.2229L77.9363 23.1538L78.5605 21.4487L81.414 12.9231L82.6624 9.24359L83.1974 7.71795Z" fill="white"/>
<path d="M83.3757 29.4359H86.6751L89.5286 37.9615L90.777 41.641L91.847 44.6923L92.4712 45.859L92.6496 46.1282H88.9935L88.6369 45.2308L87.8343 42.8077H82.1273L81.1464 45.9487L81.0572 46.1282H77.312L77.847 45.3205L78.2037 44.6026L79.6305 40.3846L83.019 30.3333L83.3757 29.4359Z" fill="white"/>
<path d="M103.35 29.2564H105.58L107.185 29.5256L108.433 29.9744L108.522 30.0641V33.1154L108.077 33.0256L107.006 32.5769L105.936 32.3077L105.312 32.2179H103.44L102.191 32.4872L100.943 33.1154L100.051 33.9231L99.516 34.7308L99.0702 35.9872L98.8918 37.0641V38.6795L99.1593 40.1154L99.6052 41.1923L100.14 41.9103V42.0897L100.497 42.2692L100.943 42.6282L101.835 43.0769L102.815 43.3462H105.223L106.026 43.1667V39.8462L105.758 38.7692L105.312 37.8718H109.236V45.0513L107.898 45.6795L106.293 46.1282L105.312 46.3077L104.242 46.3974H103.261L101.567 46.2179L100.051 45.7692L98.8027 45.141L97.9109 44.4231L97.0192 43.5256L96.395 42.5385L95.86 41.3718L95.5033 40.0256L95.325 38.4103V37.4231L95.5033 35.8077L95.86 34.4615L96.5734 33.0256L97.3759 31.9487L98.0001 31.3205L99.1593 30.5128L100.229 29.9744L101.656 29.5256L103.35 29.2564Z" fill="white"/>
<path d="M112.713 29.4359H116.726L116.815 41.1026L117.083 42.0897L117.529 42.8077L117.975 43.1667L118.599 43.4359L120.115 43.6154L121.274 43.4359L122.076 43.0769L122.522 42.7179L122.968 41.9103L123.236 40.9231L123.325 29.4359H126.535V40.7436L126.357 42L126 43.0769L125.376 44.1538L124.573 44.9615L123.414 45.6795L121.987 46.1282L120.828 46.3077H118.777L117.261 46.0385L116.102 45.5897L115.21 44.9615L114.586 44.3333L114.051 43.4359L113.694 42.359L113.516 41.2821L113.427 31.3205L113.159 30.2436L112.713 29.4359Z" fill="white"/>
<path d="M17.7453 1.4359H18.7262L19.4396 1.79487L20.0638 2.42308L20.2421 2.69231H20.8663L22.6498 2.24359H24.8791L26.2166 2.60256L27.3759 3.23077L28.4459 4.21795L29.1593 5.29487L29.0701 5.74359L28.3568 6.28205V6.91026L29.2485 8.79487L29.516 9.51282V10.0513H25.9491V10.2308L26.3058 10.4103L27.1975 11.1282L27.5542 11.7564L27.465 12.2949L27.0192 12.7436L26.395 13.0128L25.2357 13.3718L23.8982 13.4615L23.1848 13.8205L22.4714 14.2692H21.4013L20.4205 13.9103L19.4396 13.2821L18.637 12.4744L18.102 11.5769L17.7453 10.3205L17.567 9.33333V8.70513L17.9236 7.08974L18.637 5.65385L18.9937 5.20513L19.172 4.48718L19.0829 3.58974L18.5478 2.69231L18.0128 2.33333L17.1211 2.0641V1.79487L17.4778 1.52564L17.7453 1.4359Z" fill="#141414"/>
<path d="M65.2739 29.4359H74.637V32.1282H69.2867V36.1667H74.0128V38.859H69.2867V43.4359H74.9937L74.7262 44.2436L73.9236 46.1282H65.2739L65.7198 45.2308L65.9873 44.2436V31.2308L65.7198 30.2436L65.3631 29.6154L65.2739 29.4359Z" fill="white"/>
<path d="M130.28 29.4359H139.643V32.1282L134.293 32.2179L134.204 36.1667H139.019V38.859H134.204L134.293 43.3462L140 43.4359L139.554 44.6026L138.93 46.1282H130.28L130.459 45.7692L130.904 44.6026L130.994 44.0641V31.5L130.815 30.6026L130.459 29.7949L130.28 29.4359Z" fill="white"/>
<path d="M13.7326 15.9744H13.9109L14.6243 17.5L15.516 18.8462L16.5861 20.1026L17.6562 21.1795L18.3695 21.8077L19.7071 22.9744L20.3313 23.5128L20.688 23.8718V24.0513H20.8664L21.7581 25.2179L22.2931 26.2949L22.6498 27.8205V28.8974L22.2039 31.3205L21.8473 33.3846L21.7581 34.4615L21.6689 38.0513L21.4014 37.782L20.5097 35.7179L19.4396 33.6538L18.102 31.4103L15.6052 27.4615L14.8027 26.0256L13.9109 24.141L13.4651 22.7051L13.1084 20.641V19.0256L13.3759 17.4103L13.7326 15.9744Z" fill="#141414"/>
<path d="M112.624 10.3205H113.516L114.586 10.5897L115.478 11.1282L116.369 11.9359L116.994 12.9231L117.439 14.0897L117.618 14.9872V17.2308L117.261 18.6667L116.637 19.9231L115.834 20.8205L115.032 21.4487L114.14 21.8077L113.783 21.8974H112.357L111.465 21.6282L110.573 21.0897L109.592 20.1026L108.968 19.0256L108.611 17.9487L108.433 16.4231L108.522 14.8077L108.879 13.4615L109.414 12.3846L109.86 11.7564L110.841 10.9487L111.732 10.5L112.624 10.3205Z" fill="#141414"/>
<path d="M53.2356 29.4359H57.2483L57.3375 43.3462L62.777 43.4359L62.242 44.8718L61.7069 46.1282H53.2356L53.6815 45.3205L53.949 44.3333V31.141L53.5923 29.9744L53.2356 29.4359Z" fill="white"/>
<path d="M97.4649 7.71795H101.388V20.9103L101.032 22.3462L100.497 23.2436L99.8725 23.8718L98.8025 24.4103L98.0891 24.5897H96.1273L95.5923 24.4103L94.5222 21.8077L94.8789 21.7179L95.4139 21.8077H96.9299L97.5541 21.5385L97.8216 21.4487L98.0891 20.5513V9.33333L97.7324 8.25641L97.4649 7.89744V7.71795Z" fill="white"/>
<path d="M24.6115 16.2436L26.2166 16.6026H27.6434L28.1784 17.2308L28.8918 18.5769L29.3376 19.9231L29.516 21V23.9615L29.2484 25.7564L28.7134 27.641L28 29.2564L27.3758 30.2436L26.5733 31.2308L25.3249 32.4872L24.0765 33.4744L23.0064 34.1026H22.9172L23.0064 33.2949L23.5414 31.5L24.2548 29.8846L25.1465 28.1795L26.0383 26.5641L26.5733 24.9487L26.7516 24.141V21.8077L26.3949 20.3718L25.6816 18.9359L24.7007 17.3205L24.6115 17.0513V16.2436Z" fill="#141414"/>
<path d="M11.1464 25.0385L11.3248 25.1282L12.0381 27.1026L12.5732 28.1795V28.8974L12.0381 30.3333L11.6814 31.9487L11.5923 32.6667V35.8974L11.6814 36.7949H11.5031L10.7897 35.359L10.0763 34.3718L9.18462 33.6538L8.02539 33.1154L7.40118 32.9359L7.31201 32.4872L7.6687 30.9615L8.2929 29.3462L9.00628 27.9103L9.898 26.4744L10.9681 25.2179L11.1464 25.0385Z" fill="#141414"/>
<path d="M30.6751 39.5769L31.2101 39.6667L32.6369 40.5641L33.1719 40.9231L33.2611 41.3718V43.0769L33.0827 44.5128L32.7261 44.8718L31.121 45.7692L30.4968 45.6795L29.07 44.782L27.8216 43.7051L27.7324 43.0769V41.0128L28.6241 40.4744L29.5159 40.0256L30.6751 39.5769Z" fill="#141414"/>
<path d="M27.4651 34.1923H30.7644L32.8154 34.4615L33.7963 34.7308L34.4205 35.2692L34.688 35.8974L34.7772 37.1538L34.5097 37.4231H33.7963L33.7071 37.3333L33.5288 35.9872L33.1721 35.5385L32.5479 35.359L32.8154 36.4359V37.1538L32.6371 37.3333H31.7453L31.6562 37.1538L31.567 35.7179L29.6944 36.4359L28.3568 36.7949L26.0383 37.1538H25.325V36.7949L26.0383 35.8077L27.0192 34.7308L27.4651 34.1923Z" fill="#141414"/>
<path d="M128.14 10.3205H129.389L130.637 10.5897L131.439 11.1282L131.885 12.0256V13.3718L131.529 14.1795L130.726 14.8974L129.745 15.2564H128.14V10.3205Z" fill="#141414"/>
<path d="M15.6943 11.2179L15.8727 11.4872L16.4077 13.3718L17.1211 14.8077L17.7453 15.7051L18.5478 16.6923L19.8854 17.859L21.0447 18.7564L22.0255 19.5641L22.7389 20.2821L23.3631 21.1795L23.8982 22.1667V22.3462L23.5415 22.2564L21.6689 21.1795L20.2421 20.2821L18.9937 19.2949L17.9236 18.2179L17.0319 17.0513L16.3185 15.7051L15.8727 14.359L15.6943 13.3718V11.2179Z" fill="#141414"/>
<path d="M84.8918 33.3846H85.0701L85.516 35.2692L86.8536 39.3077L87.1211 40.2051H82.8408L83.9109 36.8846L84.6243 34.5513L84.8918 33.3846Z" fill="#141414"/>
<path d="M84.8027 11.6667H84.8918L85.3377 13.4615L86.9428 18.3077V18.4872H82.7517L82.9301 17.6795L84.3568 13.282L84.7135 11.7564L84.8027 11.6667Z" fill="#141414"/>
<path d="M27.3758 44.3333L28.0001 44.4231L29.2485 45.141L30.4077 46.0385L30.6752 46.3077L30.7644 47.1154V48.5513L29.9618 48.4615L28.8026 48.0128L27.8217 47.3846L26.6625 46.2179L26.1274 45.4103V45.0513L27.3758 44.3333Z" fill="#141414"/>
<path d="M29.3377 37.4231H30.4969L30.9428 37.6026L30.8536 38.3205L30.5861 39.0385L29.6944 39.6667L28.446 40.2949L27.2867 40.7436L26.5734 40.6538L25.7708 40.4744L25.6816 40.2051L26.3058 39.1282L27.0192 38.4103L27.8218 37.8718L28.8027 37.5128L29.3377 37.4231Z" fill="#141414"/>
<path d="M34.6878 40.2949L34.9553 40.3846L35.5795 41.7308L35.847 42.7179V44.8718L35.4012 46.2179L35.0445 46.3077L34.4203 45.5L33.7069 44.6026L33.5286 43.6154V42.359L33.7069 41.0128L34.2419 40.5641L34.6878 40.2949Z" fill="#141414"/>
<path d="M21.4014 5.5641H23.8982L24.7899 6.01282L25.4141 6.82051L25.6816 7.80769L25.7708 8.88462L25.4141 8.70513L24.5224 7.44872L24.0765 7.08974L22.2039 6.28205L21.4014 5.74359V5.5641Z" fill="#E2D300"/>
<path d="M27.1083 13.7308H28.0892L28.4458 14.1795L28.3567 14.718L27.7325 15.2564L27.0191 15.4359H26.2165L25.3248 15.1667L24.879 14.8077L24.7898 14.5385L25.6815 14.359L26.5732 14.0897L27.1083 13.7308Z" fill="#141414"/>
<path d="M29.6052 10.3205H29.7835L29.9618 11.1282L29.8727 11.9359L29.4268 12.6538L29.0701 12.9231L28.6243 12.8333L28.2676 12.4744V11.4872L28.7134 10.9487L29.6052 10.3205Z" fill="#141414"/>
<path d="M22.6497 48.3718L23.5414 48.4615L23.9872 48.8205L24.2548 49.4487L24.3439 50.3462L24.1656 50.6154H23.1847L23.0955 50.5256L22.9172 49.0897L22.6497 48.5513V48.3718Z" fill="#E2D300"/>
<path d="M28.2676 1.79487L28.8918 1.88461L29.2485 2.33333L29.3377 2.87179L29.1594 3.32051L28.8027 3.14102L27.8218 2.24359L27.9109 1.97436L28.2676 1.79487Z" fill="#141414"/>
<path d="M29.2485 6.91026H29.4268L29.3376 7.6282L28.981 7.44872L29.0701 7L29.2485 6.91026Z" fill="#141414"/>
</svg>
