<svg width="75" height="131" viewBox="0 0 75 131" fill="none" xmlns="http://www.w3.org/2000/svg">
<path d="M29.8171 0H32.561L34.7561 1.08116L35.8537 2.16231L37.1341 1.98212L38.5976 1.62173L41.3415 1.44154L44.4512 1.98212H45.3659L46.6463 0.900963L47.561 0.540578H49.939L51.4024 1.44154L52.1341 2.3425L52.6829 3.96424V5.22558L51.9512 7.38789L52.1341 8.82943L52.6829 10.8116V12.7937L52.3171 14.956L53.2317 17.2985L53.4146 19.4608L53.0488 21.0825L52.3171 22.1637L51.2195 23.2448L50.8537 25.0468L50.122 26.3081L49.7561 26.8487L51.5854 29.5516L53.0488 32.6148L53.7805 34.7772L54.1463 36.3989L54.3293 38.0206V41.6245L53.5976 45.9491L52.6829 49.0124L51.5854 51.5351L49.939 54.238L49.2073 55.1389L56.8902 56.2201L59.0854 56.9408L60.5488 58.2022L61.0976 58.923L61.4634 61.0853V62.1664L60.7317 63.2476L58.7195 64.1485L60.1829 65.5901L61.8293 68.1128L62.7439 70.8157L62.9268 71.8968V75.1403L62.1951 77.8432L61.0976 80.0055L59.6341 81.8074L57.9878 83.2489L55.061 84.6905L52.1341 85.2311H50.6707L47.9268 84.6905L46.4634 84.1499L46.0976 85.0509H44.0854L43.9024 84.5103L43.7195 82.5282L43.1707 81.447L42.9878 80.9064L42.2561 80.5461L41.1585 80.1857L36.7683 80.0055L36.2195 79.4649L34.5732 72.978L32.1951 66.1307L29.8171 61.2655L28.3537 59.1031L26.5244 56.5805L24.878 54.4181L23.5976 52.2558L23.4146 52.9766V57.121L23.9634 60.3645L25.2439 64.1485L28.1707 69.9147L30.1829 74.0591L32.378 79.1045L33.1098 80.1857L34.3902 81.2668L36.2195 81.9876L36.9512 82.7084L37.1341 83.2489V84.8707L36.0366 85.2311L33.8415 85.4113H27.0732L24.878 85.2311L24.1463 84.8707L23.9634 83.0688L23.0488 81.6272L21.5854 81.0866H15.5488L18.4756 81.447L20.3049 81.9876L21.2195 82.8886L21.5854 83.9697L21.4024 84.8707L20.8537 85.2311L17.561 85.5915H11.5244L7.86585 85.4113L11.3415 87.033L15 88.1142L18.2927 88.8349L21.5854 89.1953L25.061 89.3755H36.7683L42.0732 89.0151L47.3781 88.2943L52.3171 87.2132L57.0732 85.7716L60.9146 83.9697L63.2927 82.348L65.4878 80.3659L66.9512 78.7441L68.5976 76.0412L69.3293 74.0591L69.6951 71.8968V67.9326L68.9634 64.3287L68.0488 61.9862L66.9512 60.3645L65.4878 59.1031L63.4756 58.022L62.561 56.9408L62.3781 56.4003V55.1389L63.1098 53.8776L64.3902 53.1568H66.2195L68.0488 54.0578L69.8781 55.6795L71.3415 57.3012L72.9878 60.1843L74.2683 63.9683L74.8171 66.8514L75 68.1128V72.077L74.2683 75.1403L73.1707 78.0234L72.0732 80.0055L70.2439 82.5282L68.0488 84.8707L66.5854 86.3122L64.0244 88.1142L61.4634 89.5557L58.1707 90.9972L53.9634 92.2586L48.6585 93.3397L42.622 94.0605H20.4878L15.5488 93.3397L10.6098 92.0784L7.86585 90.9972L4.93902 89.5557L3.10976 88.1142L1.46341 86.3122L0.365854 84.1499L0 82.8886V80.0055L1.09756 77.1224V75.6809L0.548781 73.5186L0.365854 70.4553L0.914634 67.392L2.0122 64.6891L3.29268 63.0674L4.57317 61.9862L6.40244 61.2655H9.14634L10.6098 61.9862L12.0732 63.4278L12.9878 65.2297L13.3537 66.6712V69.1939L12.622 72.2572L12.0732 73.3384L13.7195 72.077L15.3659 70.2751L16.6463 67.7524L17.1951 65.5901V63.7882L16.6463 61.4457L15.5488 59.6437L14.0854 58.3824L11.8902 57.4814L11.1585 57.3012H9.32927L6.95122 58.022L6.40244 58.2022V56.9408L7.68293 52.6162L9.14634 49.3728L10.6098 46.4897L12.439 43.7868L14.4512 41.2641L16.6463 38.9216L18.2927 37.48V33.5158L18.8415 29.912L20.122 26.1279L21.5854 23.425L22.3171 22.1637L22.5 21.8033L22.8659 17.4787L23.5976 14.4154L24.878 11.3521L25.9756 9.5502L26.8902 8.28886V7.2077L26.3415 6.12655L26.1585 4.50481L26.5244 2.88308L27.622 1.26135L29.0854 0.360385L29.8171 0Z" fill="#E2D300"/>
<path d="M30.3659 2.34253H32.1952L33.6586 3.24349L34.7562 4.50484L36.2196 4.32465L38.4147 3.78407L39.6952 3.60388H41.7074L44.4513 4.14445L47.0123 5.4058L48.8415 7.02753L49.9391 8.64927V9.55023L48.6586 10.4512V11.5323L50.122 14.5956L50.6708 16.0372V16.7579H44.4513V17.1183L45.183 17.4787L46.6464 18.74L47.1952 19.4608V20.542L46.2806 21.4429L44.8172 21.9835L43.5367 22.3439L40.6098 22.7043L38.4147 23.9656H36.7684L34.7562 23.2449L32.744 21.8033L31.2806 19.8212L30.5489 18.0193L30.183 16.0372V14.055L30.7318 11.7125L32.0123 9.37004L32.744 8.10869V6.12657L32.0123 4.68503L31.0976 3.96426L29.2684 3.42368L29.0854 3.0633L30.3659 2.34253Z" fill="#101010"/>
<path d="M23.5976 26.8486L24.1463 27.3892L25.4268 29.9119L27.2561 32.4346L29.8171 35.1375L31.6463 36.7592L33.6585 38.381L36.5854 41.264L38.0488 43.6065L38.5976 45.2283L38.7805 46.1292V49.1925L37.6829 54.7785L37.3171 57.8417L37.1341 63.9683L36.5854 63.2475L35.122 60.0041L32.9268 55.8596L30.7317 52.2558L28.7195 49.1925L26.5244 45.7688L24.3293 41.6244L23.2317 38.7413L22.6829 36.3988L22.5 34.7771V31.7138L23.0488 28.6506L23.4146 27.0288L23.5976 26.8486Z" fill="#101010"/>
<path d="M49.2072 98.0247H51.4023L53.2316 98.5652L54.8779 99.6464L56.1584 101.088L56.8901 102.71L57.256 105.413L56.8901 107.935L55.7925 110.098L54.3291 111.539L52.4999 112.44L51.7682 112.62H48.8413L46.8291 111.899L44.9999 110.278L44.0852 108.836L43.5364 107.214L43.3535 104.872L43.7194 102.71L44.8169 100.547L46.0974 99.286L48.2925 98.2049L49.2072 98.0247Z" fill="white"/>
<path d="M42.2559 27.209L44.4511 27.7496H47.3779L48.6584 29.3713L49.9389 32.0742L50.4876 34.0563L50.6706 35.3176V40.0027L50.1218 43.4263L49.2071 46.4896L47.9267 49.3727L46.2803 51.7152L44.8169 53.3369L41.8901 55.8596L39.512 57.3011L39.3291 56.5804L40.4267 52.7963L41.8901 49.5529L44.634 44.6877L45.7315 41.264L45.9145 40.363V36.7592L45.1828 34.0563L43.7193 31.1732L42.4389 29.1911L42.2559 28.8307V27.209Z" fill="#101010"/>
<path d="M6.58521 98.2051H10.0608L12.9876 103.07L14.0852 104.872L17.012 100.007L18.1096 98.2051H20.8535V112.44H18.1096L17.9267 103.611L14.8169 108.656H13.3535L11.1584 105.233L10.2437 103.611L10.0608 112.44H6.58521L7.13399 110.819V99.8268L6.58521 98.2051Z" fill="white"/>
<path d="M58.3535 98.2051H64.2072L66.0364 98.7457L67.134 99.4664L67.8657 100.728L68.0486 101.268V103.07L67.3169 104.872L66.0364 105.953L65.6706 106.314L66.5852 107.755L68.9633 112.26V112.44H65.4877L62.9267 107.215V106.854L61.8291 106.674V112.44H58.3535L58.9023 110.819V99.8268L58.3535 98.2051Z" fill="white"/>
<path d="M26.8901 116.584H29.634L30.3657 118.206L33.2925 126.855L34.573 130.099L34.9389 130.82H31.6462L30.7315 128.117H25.7925L24.8779 130.82H21.5852L22.4998 129.018L25.2437 120.909L26.7072 116.765L26.8901 116.584Z" fill="white"/>
<path d="M27.4391 98.2051H30.3659L33.1098 105.953L34.9391 111.179L35.4879 112.44H32.3781L31.8293 111.179L31.4635 109.557H26.3415L25.9757 111.179L25.4269 112.44H22.3171L23.2318 110.278L27.0732 99.106L27.4391 98.2051Z" fill="white"/>
<path d="M49.2073 116.584H52.6829L52.8658 126.495L53.4146 127.937L54.3292 128.477H56.7073L57.8048 127.756L58.1707 127.036L58.3536 116.765L58.5365 116.584H61.2804V126.675L60.7317 128.477L59.4512 129.919L57.6219 130.82L56.7073 131H54.1463L52.317 130.459L51.2195 129.739L50.3048 128.477L49.939 127.216L49.7561 118.026L49.2073 116.584Z" fill="white"/>
<path d="M19.2072 41.9849L19.573 42.7056L20.6706 45.5887L21.5852 47.3906V48.4718L20.4877 51.5351L19.9389 54.4181L19.756 58.022L19.9389 61.806L19.3901 61.0853L18.1096 58.7428L17.0121 57.4814L15.1828 56.2201L13.9023 55.6795L12.6218 55.3191V54.0578L13.7194 50.2737L15.3657 46.8501L17.195 44.1472L18.8413 42.1651L19.2072 41.9849Z" fill="#101010"/>
<path d="M42.6219 116.404H44.6341L47.0121 116.945L47.195 117.125V119.828L44.817 119.107H42.256L40.7926 119.648L39.878 120.369L39.1463 121.81L38.9633 122.351V125.234L39.695 127.036L41.1585 128.117L41.8902 128.297H44.9999L44.817 124.873L44.4511 123.792H47.7438V129.919L46.2804 130.64L44.6341 131H41.3414L39.5121 130.459L37.8658 129.378L36.7682 128.117L36.0365 126.675L35.6707 124.873V122.711L36.2194 120.549L37.317 118.927L38.9633 117.485L40.6097 116.765L42.6219 116.404Z" fill="white"/>
<path d="M52.683 66.491L53.5976 66.6712L56.5245 68.4731L56.8903 68.8335L57.0732 69.5542V72.4373L56.7074 74.96L55.061 76.0412L53.4147 76.9421L52.3171 76.7619L49.7562 75.1402L47.744 73.5185L47.561 72.2571V68.8335L49.5732 67.7523L51.5854 66.8514L52.683 66.491Z" fill="#101010"/>
<path d="M62.9268 116.584H70.9755V118.927H66.4024V122.351H70.4268V124.693H66.4024V128.477H71.3414L70.7926 130.099L70.4268 130.82H62.9268L63.2926 129.739V117.485L62.9268 116.584Z" fill="white"/>
<path d="M12.8049 116.584H20.8537V118.927H16.0976V122.351H20.3049V124.693H16.0976V128.477H21.2196L20.3049 130.82H12.8049L13.1708 129.558V117.666L12.8049 116.584Z" fill="white"/>
<path d="M50.122 100.367L51.9513 100.728L53.4147 101.989L54.1464 103.611L54.3293 104.692V106.133L53.7805 108.115L52.3171 109.737L51.0366 110.278H49.5732L48.1098 109.557L46.8293 108.115L46.2805 106.133V104.512L46.8293 102.71L47.561 101.629L48.6586 100.728L50.122 100.367Z" fill="#101010"/>
<path d="M47.0121 57.4814H53.2316L56.1584 57.8418L57.9877 58.3824L59.0852 59.2834L59.4511 60.0041L59.634 61.0853V62.5268L59.2681 62.8872H57.9877L57.8047 62.707L57.4389 60.3645L56.8901 59.6438L55.7925 59.2834L56.3413 61.4457V62.3466L55.9755 62.707H54.5121L54.3291 62.5268L54.1462 60.0041L50.8535 61.2655L47.5608 61.9863L45.1828 62.3466H43.3535L43.5364 61.6259L44.8169 60.0041L46.4633 58.2022L47.0121 57.4814Z" fill="#101010"/>
<path d="M3.84131 116.584H7.31692V128.477H12.073L11.5242 130.099L11.1584 130.82H3.84131L4.39009 129.378V118.026L3.84131 116.584Z" fill="white"/>
<path d="M26.8901 18.74L27.256 19.2806L27.9877 21.9835L28.9023 24.1458L30.3657 26.3081L32.3779 28.4704L34.756 30.4525L37.317 32.4346L39.3292 34.4167L40.7926 36.7592L40.9755 37.6602L35.8536 34.7771L33.2926 32.9752L31.0975 30.9931L29.0853 28.4704L27.8048 25.9477L27.0731 23.425L26.8901 22.3438V18.74Z" fill="#101010"/>
<path d="M38.2318 98.2051H41.7074V109.918L41.1586 111.179L40.244 112.08L38.9635 112.62H37.1342L36.4025 111.9L35.8538 110.638V110.098H38.0489L38.5977 109.737L38.7806 109.197V99.4664L38.2318 98.2051Z" fill="white"/>
<path d="M47.0123 74.4194L47.9269 74.5996L49.9391 75.6808L52.1342 77.3025L52.683 77.8431L52.8659 81.6271L50.8537 81.2668L48.2927 80.0054L46.4635 78.3837L45.183 76.9421L44.8171 76.2214V75.6808L47.0123 74.4194Z" fill="#101010"/>
<path d="M50.305 62.8872H52.5001L53.0489 63.0674L52.8659 64.8693L52.3172 65.7703L49.9391 67.2118L47.1952 68.293L46.0976 68.4732L44.0854 67.9326L44.2684 67.0316L45.5489 65.2297L47.3781 63.7882L49.2074 63.0674L50.305 62.8872Z" fill="#101010"/>
<path d="M59.2684 67.7524L60.0001 67.9326L61.0977 70.0949L61.4635 71.5365V75.5007L60.7318 77.663H60.0001L57.9879 75.1403L57.6221 74.4196V69.9148L57.9879 68.6534L59.2684 67.7524Z" fill="#101010"/>
<path d="M36.5852 9.18994H40.6096L42.2559 9.91071L43.1706 10.8117L43.9023 12.2532L44.2681 14.9561L43.1706 14.0551L41.7072 12.073L38.0486 10.4513L36.5852 9.55033V9.18994Z" fill="#E2D300"/>
<path d="M61.8293 100.367L63.8415 100.547L64.7562 101.088L65.122 101.809V103.07L64.3903 104.151L62.744 104.692H61.8293V100.367Z" fill="#101010"/>
<path d="M46.4635 23.0647H48.2928L48.8416 23.7855L48.6587 24.6864L47.5611 25.5874L47.1952 25.7676H44.2684L43.1709 25.227L42.6221 24.6864V24.326L45.183 23.7855L46.4635 23.0647Z" fill="#101010"/>
<path d="M28.7196 101.809L29.0854 101.989L30.0001 104.872L30.7318 107.034V107.395H27.0732L27.622 105.413L28.5367 102.71L28.7196 101.809Z" fill="#101010"/>
<path d="M28.1708 120.008L28.5366 120.729L30 125.234V125.774H26.5244L26.8903 124.153L28.1708 120.008Z" fill="#101010"/>
<path d="M50.8536 17.2986L51.2195 17.659L51.4024 19.4609L50.8536 20.9024L49.939 21.6232L49.0244 21.443L48.4756 20.9024V19.2807L49.2073 18.3797L50.8536 17.2986Z" fill="#101010"/>
<path d="M38.7805 81.2668L40.4269 81.447L41.3415 82.348L41.7073 83.6094V84.8707L41.3415 85.0509H39.8781L39.5122 84.6905L39.3293 82.5282L38.7805 81.6272V81.2668Z" fill="#E2D300"/>
<path d="M48.6585 2.88306L49.5732 3.06325L50.3049 4.1444L50.1219 5.58594L49.3902 5.22556L47.7439 3.78402L47.9268 3.24344L48.6585 2.88306Z" fill="#101010"/>
</svg>
