<svg xmlns="http://www.w3.org/2000/svg" width="35" height="32" fill="none" viewBox="0 0 35 32"><path fill="#fff" d="M33.4019 8.01387C33.0191 6.57891 31.895 5.45273 30.467 5.07129C27.8785 4.375 17.5 4.375 17.5 4.375C17.5 4.375 7.12154 4.375 4.533 5.07129C3.10505 5.45273 1.98092 6.57891 1.5981 8.01387C0.905396 10.6113 0.905396 16.0242 0.905396 16.0242C0.905396 16.0242 0.905396 21.4371 1.5981 24.0346C1.98092 25.4695 3.10505 26.5473 4.533 26.9287C7.12154 27.625 17.5 27.625 17.5 27.625C17.5 27.625 27.8785 27.625 30.467 26.9287C31.895 26.5473 33.0191 25.4635 33.4019 24.0346C34.0946 21.4371 34.0946 16.0242 34.0946 16.0242C34.0946 16.0242 34.0946 10.6113 33.4019 8.01387ZM14.1094 20.9406V11.1078L22.7804 16.0242L14.1094 20.9406Z"/></svg>